<?xml version="1.0" standalone="no"?>
<!DOCTYPE svg PUBLIC "-//W3C//DTD SVG 1.1//EN" "http://www.w3.org/Graphics/SVG/1.1/DTD/svg11.dtd" >
<svg xmlns="http://www.w3.org/2000/svg" xmlns:xlink="http://www.w3.org/1999/xlink" version="1.1">
<metadata></metadata>
<defs>
<font id="nimbus_sans_l_cybold" horiz-adv-x="1138" >
<font-face units-per-em="2048" ascent="1638" descent="-410" />
<missing-glyph horiz-adv-x="569" />
<glyph horiz-adv-x="0" />
<glyph unicode="&#xd;" horiz-adv-x="569" />
<glyph unicode=" "  horiz-adv-x="569" />
<glyph unicode="&#x09;" horiz-adv-x="569" />
<glyph unicode="&#xa0;" horiz-adv-x="569" />
<glyph unicode="!" horiz-adv-x="681" d="M229 0v299h308v-299h-308zM229 1057v430h308v-430l-86 -633h-138z" />
<glyph unicode="&#x22;" horiz-adv-x="970" d="M102 1227v266h283v-266l-86 -264h-115zM586 1227v266h282v-266l-86 -264h-114z" />
<glyph unicode="#" d="M6 352v203h199l61 313h-203v203h244l70 356h215l-70 -356h211l70 356h215l-70 -356h185v-203h-224l-63 -313h205v-203h-244l-82 -418h-215l82 418h-211l-82 -418h-217l82 418h-158zM420 555h211l61 313h-211z" />
<glyph unicode="$" d="M45 391v33h268q10 -217 185 -248v436q-418 96 -418 435q0 174 109.5 280.5t308.5 124.5v111h139v-111q195 -10 306.5 -125t115.5 -307h-262q4 94 -39 154.5t-121 70.5v-411q119 -33 204 -73t137 -92.5t76.5 -119t24.5 -150.5q0 -121 -48 -216t-138 -148q-94 -59 -256 -78 v-215h-139v215q-96 10 -161 32.5t-124 67.5q-80 59 -124 147.5t-44 186.5zM332 1057q0 -68 40 -111t126 -72v371q-166 -33 -166 -188zM637 176q172 43 172 199q0 150 -172 203v-402z" />
<glyph unicode="%" horiz-adv-x="1820" d="M45 1063q0 78 29.5 145.5t81 118.5t121 80t149.5 29q76 0 144.5 -30t118.5 -80t80 -118.5t30 -144.5q0 -78 -30 -145.5t-81 -118.5t-119.5 -80t-146.5 -29t-146.5 30t-120 80t-81 117.5t-29.5 145.5zM248 1063q0 -72 51 -122t123 -50q37 0 68.5 13.5t55 36t37 54 t13.5 66.5q0 72 -51 122t-125 50q-72 0 -122 -50t-50 -120zM430 -41l811 1493h156l-809 -1493h-158zM1014 346q0 78 29.5 146.5t81 119t121 80t149.5 29.5q76 0 144.5 -29.5t118.5 -81t79.5 -120t29.5 -144.5q0 -78 -29.5 -145.5t-80.5 -117.5t-120 -80t-146 -30 q-78 0 -146.5 30t-120 80t-81 117.5t-29.5 145.5zM1217 346q0 -35 13 -66.5t36.5 -55t55.5 -37t69 -13.5t68.5 13.5t55 37t37 55t13.5 66.5q0 72 -51 122t-125 50q-72 0 -122 -50t-50 -122z" />
<glyph unicode="&#x26;" horiz-adv-x="1478" d="M113 395q0 72 16 130.5t54 108.5t99.5 95t151.5 92l-24 31l-58 70q-86 100 -86 217q0 74 30 136t82 108.5t122.5 72t152.5 25.5t149.5 -22.5t115 -64.5t74 -100.5t26.5 -128.5q0 -57 -12.5 -103t-40 -88t-73.5 -83t-114 -88l238 -295q35 66 48 117t13 120v19h232v-23 q0 -121 -37 -230.5t-103 -195.5l252 -315h-329l-95 115q-63 -47 -113 -78t-96.5 -49.5t-91.5 -26.5t-98 -8q-109 0 -199 31.5t-153.5 90t-98 139.5t-34.5 181zM385 430q0 -47 18.5 -90t49 -76t69.5 -53.5t80 -20.5q98 0 246 113l-279 350l-96 -59q-41 -29 -64.5 -71 t-23.5 -93zM537 1159q0 -18 3 -33.5t14 -36t33.5 -50t61.5 -76.5q123 70 123 178q0 55 -30.5 85.5t-86.5 30.5q-53 0 -85.5 -26.5t-32.5 -71.5z" />
<glyph unicode="'" horiz-adv-x="487" d="M102 1227v266h283v-266l-86 -264h-115z" />
<glyph unicode="(" horiz-adv-x="681" d="M82 543q0 119 19.5 231.5t59.5 228t103.5 236.5t151.5 254h205q-82 -158 -136.5 -283t-88.5 -235.5t-48 -215t-14 -216.5q0 -115 14 -218.5t47 -214t88.5 -236.5t137.5 -284h-205q-88 133 -151.5 254t-103.5 237t-59.5 229.5t-19.5 232.5z" />
<glyph unicode=")" horiz-adv-x="681" d="M45 -410q82 156 136.5 282t88 236.5t48 215t14.5 217.5t-14.5 217t-47 214.5t-88 236.5t-137.5 284h205q88 -133 151.5 -254t103.5 -236.5t59.5 -229.5t19.5 -232q0 -119 -19.5 -231.5t-59.5 -228.5t-103.5 -236.5t-151.5 -254.5h-205z" />
<glyph unicode="*" horiz-adv-x="796" d="M47 1188l45 141l223 -74v238h148v-238l223 74l45 -143l-223 -72l137 -192l-119 -88l-137 192l-137 -192l-119 88l137 192z" />
<glyph unicode="+" horiz-adv-x="1196" d="M102 352v244h373v373h244v-373h373v-244h-373v-372h-244v372h-373z" />
<glyph unicode="," horiz-adv-x="569" d="M131 0v299h307v-281q0 -123 -25.5 -189.5t-93.5 -115.5q-41 -29 -85 -45t-103 -24v114q182 33 176 242h-176z" />
<glyph unicode="-" horiz-adv-x="681" d="M53 424v276h557v-276h-557z" />
<glyph unicode="." horiz-adv-x="569" d="M131 0v299h307v-299h-307z" />
<glyph unicode="/" horiz-adv-x="569" d="M4 -29l422 1491h137l-422 -1491h-137z" />
<glyph unicode="0" d="M59 719q0 217 32 359.5t99 228.5q135 176 375 176q127 0 231.5 -59.5t166.5 -166.5q96 -168 96 -540q0 -217 -32 -359.5t-99 -228.5q-133 -176 -369 -176q-131 0 -235.5 58.5t-167.5 166.5q-96 162 -97 541zM346 719q0 -154 12.5 -260.5t36.5 -153.5q53 -106 164 -106 q131 0 178 141q8 23 14.5 61.5t10.5 90t7 109.5t3 120q0 154 -13.5 264.5t-35.5 157.5q-53 108 -166 108q-61 0 -107.5 -37.5t-68.5 -107.5q-8 -23 -14.5 -62.5t-11.5 -92t-7 -112t-2 -120.5z" />
<glyph unicode="1" d="M139 1001v191q377 0 445 260h190v-1452h-287v1001h-348z" />
<glyph unicode="2" d="M61 0q6 100 24.5 178t56.5 142.5t100.5 123t154.5 121.5q121 86 194 144.5t112.5 106.5t52 93t12.5 107q0 111 -54.5 172t-150.5 61q-100 0 -153.5 -67.5t-53.5 -194.5v-41h-274q-2 16 -2 28.5v22.5q0 231 125 358.5t352 127.5q115 0 207 -33t156.5 -92.5t99.5 -145.5 t35 -190q0 -74 -15.5 -134.5t-53.5 -116.5t-100.5 -113.5t-156.5 -127.5q-80 -57 -130 -96t-83 -68.5t-50 -55t-32 -54.5h615v-256h-988z" />
<glyph unicode="3" d="M59 426h279q12 -227 217 -227q96 0 155.5 60t59.5 159q0 115 -72.5 173t-212.5 58h-41v193h31q248 0 248 219q0 92 -47 141t-133 49q-66 0 -112 -28.5t-66 -79.5q-10 -27 -14.5 -59.5t-6.5 -88.5h-266q0 45 2 78t6 59.5t10 50t17 50.5q47 119 161.5 184.5t274.5 65.5 q104 0 190 -28t145.5 -79t92.5 -124.5t33 -164.5q0 -100 -45 -172.5t-146 -136.5q123 -59 180.5 -145t57.5 -215q0 -106 -36 -192.5t-102.5 -147t-159.5 -93t-208 -32.5q-227 0 -358.5 127t-133.5 346z" />
<glyph unicode="4" d="M49 322v241l531 889h338v-893h151v-237h-151v-322h-287v322h-582zM252 559h379v621z" />
<glyph unicode="5" d="M55 379h283q10 -180 201 -180q111 0 172 72.5t61 201.5q0 133 -61.5 207t-171.5 74q-137 0 -185 -111h-258l129 809h776v-256h-600l-47 -303q63 47 122 67.5t130 20.5q100 0 183 -37t143.5 -102.5t93.5 -157.5t33 -205q0 -117 -38 -214t-107.5 -166.5t-166 -107.5 t-212.5 -38q-106 0 -193.5 30.5t-151 87t-98.5 134.5t-37 174z" />
<glyph unicode="6" d="M66 690q0 98 7 180t21.5 149.5t37 126t54.5 111.5q66 111 173.5 168.5t244.5 57.5q121 0 218.5 -45t152.5 -129q25 -39 39 -80t24 -107h-266q-29 70 -68.5 99.5t-109.5 29.5q-86 0 -144.5 -54t-78.5 -155q-4 -23 -7.5 -38t-4.5 -34.5t-3 -52t-4 -90.5q68 70 133.5 99.5 t153.5 29.5q94 0 172 -34.5t134 -96t87 -148.5t31 -192q0 -119 -35 -217t-99.5 -167.5t-153.5 -108.5t-197 -39q-129 0 -237 56.5t-171 158.5q-55 88 -79.5 211t-24.5 311zM348 461q0 -117 61.5 -189.5t159.5 -72.5q49 0 89 20.5t70 55t46.5 84t16.5 108.5q0 123 -60 192.5 t-164 69.5q-98 0 -158.5 -74.5t-60.5 -193.5z" />
<glyph unicode="7" d="M59 1196v256h1022v-225q-129 -156 -222 -302.5t-156.5 -295t-97.5 -303t-44 -326.5h-289q20 184 59.5 341t100 298t146.5 276.5t204 280.5h-723z" />
<glyph unicode="8" d="M45 418q0 129 55.5 216t182.5 157q-98 53 -143.5 122.5t-45.5 173.5q0 86 35 159t97.5 125t147.5 82t187 30q100 0 185 -30t147.5 -82t97.5 -123.5t35 -157.5q0 -72 -24.5 -134.5t-69.5 -103.5q-16 -16 -36.5 -28.5t-57.5 -32.5q127 -70 182 -157t55 -216 q0 -102 -38 -188.5t-105.5 -148t-162.5 -95t-208 -33.5q-115 0 -210 33.5t-162.5 95t-105.5 147.5t-38 189zM332 434q0 -109 61.5 -172t165.5 -63q106 0 167.5 62.5t61.5 172.5q0 113 -61 177.5t-170 64.5q-104 0 -164.5 -65.5t-60.5 -176.5zM346 1063q0 -86 59.5 -139.5 t157.5 -53.5q96 0 155.5 53.5t59.5 139.5t-60.5 137t-158.5 51q-94 0 -153.5 -52t-59.5 -136z" />
<glyph unicode="9" d="M57 971q0 113 36 207t100.5 161.5t153.5 105.5t198 38q135 0 242.5 -63.5t175.5 -184.5q94 -166 94 -475q0 -182 -34 -339t-93 -255q-66 -106 -169.5 -160.5t-238.5 -54.5q-94 0 -174 28.5t-139 81t-94 123t-37 154.5h276q4 -66 51.5 -103.5t124.5 -37.5q117 0 178.5 99 t61.5 288v26q-35 -41 -52.5 -58t-37.5 -32q-35 -25 -84 -39t-104 -14q-96 0 -176 37t-137.5 103.5t-89.5 158.5t-32 205zM330 975q0 -127 57 -198.5t156 -71.5q100 0 160.5 72.5t60.5 195.5q0 129 -61.5 202.5t-165.5 73.5q-96 0 -151.5 -73.5t-55.5 -200.5z" />
<glyph unicode=":" horiz-adv-x="681" d="M231 0v299h308v-299h-308zM231 766v299h308v-299h-308z" />
<glyph unicode=";" horiz-adv-x="681" d="M231 0v299h308v-281q0 -123 -26 -189.5t-93 -115.5q-41 -29 -85 -45t-104 -24v114q182 33 177 242h-177zM231 766v299h308v-299h-308z" />
<glyph unicode="&#x3c;" horiz-adv-x="1196" d="M82 352v248l1001 371v-223l-782 -273l782 -268v-227z" />
<glyph unicode="=" horiz-adv-x="1196" d="M102 106v244h992v-244h-992zM102 598v244h992v-244h-992z" />
<glyph unicode="&#x3e;" horiz-adv-x="1196" d="M82 -20v223l782 272l-782 268v228l1001 -373v-248z" />
<glyph unicode="?" horiz-adv-x="1251" d="M131 985q2 131 25.5 215t79.5 152q137 172 393 172q113 0 207 -35t161.5 -96.5t104.5 -148.5t37 -191q0 -66 -11.5 -116t-40 -96t-75.5 -90t-119 -96q-47 -33 -73.5 -55t-41 -48t-18.5 -57.5t-4 -82.5h-254q-2 66 6 118t31.5 98t64.5 91t103 98q45 37 72.5 64.5t43 52 t21.5 51.5t6 62q0 102 -60.5 168.5t-152.5 66.5q-106 0 -166.5 -79t-60.5 -218h-279zM481 0v299h307v-299h-307z" />
<glyph unicode="@" horiz-adv-x="1996" d="M55 543q0 88 20.5 181t58.5 182t92.5 172t121.5 153q141 147 319.5 221t387.5 74q197 0 361.5 -64.5t295.5 -191.5q117 -115 172 -246t55 -297q0 -256 -178 -453q-72 -78 -157.5 -118.5t-176.5 -40.5q-98 0 -164.5 41t-91.5 112q-59 -72 -140 -112.5t-167 -40.5 q-70 0 -131 27.5t-106 74.5t-72 110.5t-27 137.5q0 104 40 211.5t112 197.5q70 88 169 137.5t204 49.5q86 0 141 -35t92 -113l33 127h184l-160 -573q-6 -23 -9 -36t-5 -21.5t-2 -14.5v-16q0 -45 26.5 -71.5t73.5 -26.5q55 0 118 42t114 115q47 68 72.5 151t25.5 169 q0 242 -201 422q-109 96 -232.5 142t-276.5 46q-358 0 -582 -258q-100 -117 -155.5 -264.5t-55.5 -300.5q0 -311 242 -500q104 -82 232 -124t269 -42q111 0 222.5 21.5t199.5 60.5l58 -149q-109 -47 -223.5 -70t-262.5 -23q-197 0 -348 47.5t-278 147.5 q-147 117 -228.5 279.5t-81.5 349.5zM727 500q0 -47 13.5 -87t38 -70t58 -46t72.5 -16q57 0 112.5 37.5t99.5 99t71 139.5t27 158q0 92 -48.5 146t-128.5 54q-59 0 -115.5 -35.5t-101.5 -94t-71.5 -133t-26.5 -152.5z" />
<glyph unicode="A" horiz-adv-x="1478" d="M53 0l531 1493h340l516 -1493h-316l-98 301h-559l-100 -301h-314zM553 557h389l-194 584z" />
<glyph unicode="B" horiz-adv-x="1478" d="M168 0v1493h666q121 0 203.5 -25.5t148.5 -83.5q63 -55 99 -130.5t36 -153.5q0 -96 -47 -166t-158 -141q129 -74 188.5 -163t59.5 -200q0 -92 -40 -178t-107 -143q-68 -57 -158 -83t-219 -26h-672zM475 256h367q227 0 227 193q0 194 -225 194h-2h-367v-387zM475 899h334 q217 0 217 170q0 168 -217 168h-334v-338z" />
<glyph unicode="C" horiz-adv-x="1478" d="M90 733q0 180 47 325.5t136 248t216 157t285 54.5q174 0 310.5 -64.5t222.5 -183.5q41 -61 62.5 -126t27.5 -157h-293q-31 137 -107.5 202.5t-212.5 65.5q-182 0 -284.5 -139t-102.5 -387t98.5 -383t278.5 -135q143 0 228 78t102 221h299q-6 -129 -54.5 -231.5t-131 -175 t-197.5 -111.5t-254 -39q-156 0 -281 54t-213 155.5t-135 246t-47 324.5z" />
<glyph unicode="D" horiz-adv-x="1478" d="M158 0v1493h583q174 0 285 -40t188 -132q88 -106 134.5 -252.5t46.5 -320.5q0 -176 -46 -322.5t-135 -251.5q-78 -92 -189.5 -133t-283.5 -41h-583zM465 256h276q346 0 346 489q0 492 -346 492h-276v-981z" />
<glyph unicode="E" horiz-adv-x="1366" d="M162 0v1493h1079v-256h-772v-338h715v-256h-715v-387h809v-256h-1116z" />
<glyph unicode="F" horiz-adv-x="1251" d="M152 0v1493h1048v-256h-741v-338h653v-256h-653v-643h-307z" />
<glyph unicode="G" horiz-adv-x="1593" d="M86 735q0 174 52 318.5t147.5 247t228.5 160t295 57.5q135 0 247.5 -35t196.5 -100.5t136.5 -157.5t66.5 -209h-289q-23 59 -42 92t-54 61q-102 86 -260 86q-199 0 -308.5 -137t-109.5 -379q0 -115 32 -211t88 -165.5t134 -108.5t172 -39q92 0 174 40t137 110 q31 41 46.5 81.5t21.5 100.5h-340v256h598v-807h-184l-37 197q-86 -127 -192.5 -183.5t-258.5 -56.5t-279.5 58.5t-221 163t-145.5 247.5t-52 313z" />
<glyph unicode="H" horiz-adv-x="1478" d="M139 0v1493h307v-559h590v559h310v-1493h-308v678h-592v-678h-307z" />
<glyph unicode="I" horiz-adv-x="569" d="M129 0v1493h307v-1493h-307z" />
<glyph unicode="J" d="M49 406v147h307v-143q0 -104 39 -149.5t127 -45.5q80 0 123 44t43 130v1104h307v-1104q0 -211 -125 -323.5t-354 -112.5q-211 0 -342 119q-66 61 -95.5 139t-29.5 195z" />
<glyph unicode="K" horiz-adv-x="1478" d="M152 0v1493h307v-655l583 655h363l-596 -643l659 -850h-366l-490 659l-153 -159v-500h-307z" />
<glyph unicode="L" horiz-adv-x="1251" d="M164 0v1493h307v-1237h715v-256h-1022z" />
<glyph unicode="M" horiz-adv-x="1705" d="M135 0v1493h459l270 -1188l262 1188h463v-1493h-307v1163l-264 -1163h-307l-269 1163v-1163h-307z" />
<glyph unicode="N" horiz-adv-x="1478" d="M139 0v1493h316l592 -1016v1016h307v-1493h-307l-601 1032v-1032h-307z" />
<glyph unicode="O" horiz-adv-x="1593" d="M82 733q0 170 54 319.5t155 258.5q98 106 225 156.5t295 50.5q156 0 287 -57.5t224 -161t145.5 -248t52.5 -316.5q0 -168 -55.5 -318.5t-153.5 -256.5q-193 -207 -510 -207t-510 207q-98 106 -153.5 256.5t-55.5 316.5zM389 735q0 -119 28.5 -215t83 -163.5t130.5 -104.5 t170 -37q92 0 169 37t130 104.5t82.5 163.5t29.5 213q0 119 -29.5 216.5t-84 165t-131 104t-172.5 36.5q-92 0 -167 -37.5t-128.5 -105.5t-82 -164t-28.5 -213z" />
<glyph unicode="P" horiz-adv-x="1366" d="M156 0v1493h659q236 0 358.5 -119t122.5 -344q0 -115 -31.5 -206t-90 -156.5t-142.5 -100.5t-186 -35h-383v-532h-307zM463 788h287q123 0 181 54.5t58 171.5q0 115 -58.5 169t-180.5 54h-287v-449z" />
<glyph unicode="Q" horiz-adv-x="1593" d="M88 735q0 168 54.5 318.5t154.5 257.5q193 207 510 207t510 -207q98 -104 153.5 -255t55.5 -317q0 -76 -11.5 -150.5t-33 -143t-52 -129t-67.5 -105.5l164 -156l-156 -166l-176 166q-92 -53 -181 -77.5t-206 -24.5q-317 0 -510 207q-98 106 -153.5 256.5t-55.5 318.5z M395 735q0 -117 30 -213t83 -164.5t129 -105.5t168 -37q102 0 180 39l-158 149l156 166l168 -159q68 135 68 323q0 119 -30 215t-83 165t-129 105.5t-170 36.5t-170 -36.5t-130 -104t-83 -164t-29 -215.5z" />
<glyph unicode="R" horiz-adv-x="1478" d="M164 0v1493h801q188 0 288 -102q53 -55 83 -133t30 -168q0 -270 -252 -369q72 -31 112 -57.5t60.5 -80t25.5 -146.5t9 -259q0 -49 15.5 -75.5t49.5 -47.5v-55h-329q-14 27 -22.5 50.5t-13.5 51t-7 63.5t-2 87v46t2 56v60q0 94 -45 136t-146 42h-352v-592h-307zM471 848 h371q121 0 169 44t48 155q0 104 -49 147t-168 43h-371v-389z" />
<glyph unicode="S" horiz-adv-x="1366" d="M66 446h299q8 -121 93 -184t242 -63q141 0 221 53t80 147q0 90 -63.5 139.5t-216.5 77.5l-209 41q-115 20 -193.5 54t-130 82.5t-74 114t-22.5 151.5q0 219 147.5 339t415.5 120q287 0 436.5 -123t151.5 -357h-287q-8 115 -86.5 174.5t-226.5 59.5q-119 0 -188.5 -49 t-69.5 -136q0 -41 13.5 -70.5t46 -51t87 -39t136.5 -33.5l233 -45q207 -39 301 -136.5t94 -273.5q0 -231 -160.5 -358t-451.5 -127q-287 0 -445.5 126t-172.5 367z" />
<glyph unicode="T" horiz-adv-x="1251" d="M29 1237v256h1196v-256h-437v-1237h-307v1237h-452z" />
<glyph unicode="U" horiz-adv-x="1478" d="M156 481v1012h307v-1012q0 -266 285 -266t284 266v1012h307v-1012q0 -127 -34.5 -218t-110.5 -159q-82 -74 -196.5 -112.5t-249.5 -38.5t-250 39t-197 112q-76 68 -110.5 159t-34.5 218z" />
<glyph unicode="V" horiz-adv-x="1366" d="M49 1493h309l332 -1124l326 1124h309l-512 -1493h-260z" />
<glyph unicode="W" horiz-adv-x="1933" d="M27 1493h325l232 -1118l231 1118h303l242 -1120l223 1120h326l-414 -1493h-276l-250 1165l-244 -1165h-276z" />
<glyph unicode="X" horiz-adv-x="1366" d="M45 0l471 752l-455 741h365l262 -492l275 492h356l-461 -731l479 -762h-364l-287 518l-285 -518h-356z" />
<glyph unicode="Y" horiz-adv-x="1366" d="M55 1493h342l305 -659l285 659h344l-473 -940v-553h-307v553z" />
<glyph unicode="Z" horiz-adv-x="1251" d="M61 0v256l764 981h-764v256h1123v-256l-762 -981h762v-256h-1123z" />
<glyph unicode="[" horiz-adv-x="681" d="M135 -410v1903h496v-209h-230v-1485h230v-209h-496z" />
<glyph unicode="\" horiz-adv-x="569" d="M-25 1462h138l479 -1491h-137z" />
<glyph unicode="]" horiz-adv-x="681" d="M37 -201h229v1485h-229v209h495v-1903h-495v209z" />
<glyph unicode="^" horiz-adv-x="1196" d="M125 553l338 870h256l350 -870h-231l-248 614l-236 -614h-229z" />
<glyph unicode="_" d="M-45 -246h1229v-141h-1229v141z" />
<glyph unicode="`" horiz-adv-x="681" d="M35 1550h258l143 -307h-143z" />
<glyph unicode="a" d="M57 285q0 293 326 348l115 20q53 8 81.5 13.5t46 9.5t28 8t24.5 12q49 27 49 86q0 111 -166 111q-106 0 -149 -33t-54 -119h-276q27 383 473 383q453 0 453 -340v-614q0 -43 13 -71.5t52 -63.5v-35h-311q-20 25 -26.5 46.5t-6.5 64.5q-152 -158 -336 -158 q-76 0 -138 23.5t-106.5 67.5t-68 105.5t-23.5 135.5zM344 317q0 -61 42 -97t114 -36q111 0 169 67.5t58 192.5v78q-12 -6 -22.5 -10t-22.5 -8t-29.5 -7t-46.5 -10l-98 -18q-90 -18 -127 -52t-37 -100z" />
<glyph unicode="b" horiz-adv-x="1251" d="M121 0v1493h287v-530q53 84 126.5 122.5t178.5 38.5q102 0 195 -48t151 -130q55 -80 87 -187.5t32 -219.5q0 -125 -36 -232.5t-98.5 -185.5t-147.5 -123t-183 -45q-104 0 -178 39t-127 121v-113h-287zM408 537q0 -78 17 -140.5t49 -108.5t76 -70.5t99 -24.5 q53 0 97.5 25.5t77 70.5t50 108.5t17.5 139.5q0 78 -17.5 141t-50 109.5t-78 72t-100.5 25.5q-53 0 -96 -25.5t-75 -72t-49 -110t-17 -140.5z" />
<glyph unicode="c" d="M70 530q0 285 136 439.5t386 154.5q211 0 336 -113.5t141 -318.5h-274q-25 111 -71 156t-134 45q-127 0 -178 -94q-27 -49 -41.5 -119t-14.5 -150q0 -164 60.5 -255t171.5 -91q86 0 133 45t74 154h274q-10 -98 -49 -178t-101.5 -136.5t-146.5 -86t-184 -29.5 q-248 0 -383 150.5t-135 426.5z" />
<glyph unicode="d" horiz-adv-x="1251" d="M59 537q0 125 36 232.5t98.5 186t147.5 123.5t183 45q104 0 178 -38.5t127 -122.5v530h287v-1493h-287v113q-53 -84 -126.5 -122t-178.5 -38q-102 0 -195 47t-151 129q-55 80 -87 187.5t-32 220.5zM346 537q0 -76 17.5 -139.5t49 -108.5t77 -70.5t98.5 -25.5t98 24.5 t77 70.5t49 108.5t17 140.5q0 160 -66 254t-179 94q-53 0 -96.5 -25.5t-75 -72t-49 -111t-17.5 -139.5z" />
<glyph unicode="e" d="M45 524q0 139 36 250t101.5 188.5t160.5 119.5t214 42q174 0 300 -89t179 -247q18 -53 28.5 -125.5t10.5 -150.5v-20.5t-2 -28.5h-741q4 -80 13 -124t32 -77q63 -90 184 -90q78 0 135.5 37t83.5 102h283q-25 -82 -73 -148.5t-114.5 -112.5t-149.5 -71.5t-175 -25.5 q-117 0 -211 40t-159.5 113.5t-100.5 179t-35 238.5zM336 653h440q-10 123 -67.5 187.5t-155.5 64.5q-190 0 -217 -252z" />
<glyph unicode="f" horiz-adv-x="681" d="M29 893v190h155v134q0 276 281 276q35 0 77 -1t89 -5v-215q-43 6 -82 6q-78 0 -78 -86v-109h170v-190h-170v-893h-287v893h-155z" />
<glyph unicode="g" horiz-adv-x="1251" d="M70 526q0 129 34.5 238.5t96 189.5t145.5 125t182 45q96 0 169 -45t139 -143v170h272v-1143q0 -197 -137 -303t-389 -106q-133 0 -228.5 27.5t-160.5 84.5q-53 47 -76 93t-25 108h297q35 -129 203 -129q109 0 176.5 62.5t67.5 162.5v150q-41 -45 -77 -76t-73 -49.5 t-76 -26.5t-88 -8q-102 0 -185 41t-142.5 116.5t-92 181t-32.5 234.5zM356 528q0 -152 63.5 -243.5t168.5 -91.5q55 0 101 24.5t80 69.5t52.5 106.5t18.5 134.5q0 78 -18.5 143.5t-52.5 112.5t-81 74t-102 27q-51 0 -93 -27t-73 -74t-47.5 -112.5t-16.5 -143.5z" />
<glyph unicode="h" horiz-adv-x="1251" d="M137 0v1493h287v-547q59 92 138 135t186 43q70 0 135 -21.5t112 -62.5q113 -94 113 -299v-741h-287v676q0 205 -174 205q-98 0 -160.5 -60.5t-62.5 -156.5v-664h-287z" />
<glyph unicode="i" horiz-adv-x="569" d="M137 0v1106h287v-1106h-287zM137 1237v256h287v-256h-287z" />
<glyph unicode="j" horiz-adv-x="569" d="M8 -207q25 -8 51 -8q47 0 65.5 19.5t18.5 66.5v1235h287v-1299q0 -135 -58.5 -194t-193.5 -59q-35 0 -82 3t-88 7v229zM143 1237v256h287v-256h-287z" />
<glyph unicode="k" d="M121 0v1493h287v-817l362 430h326l-377 -418l403 -688h-336l-264 487l-114 -125v-362h-287z" />
<glyph unicode="l" horiz-adv-x="569" d="M137 0v1493h287v-1493h-287z" />
<glyph unicode="m" horiz-adv-x="1820" d="M123 0v1106h285v-137q72 86 139 120.5t164 34.5q104 0 182 -43t119 -120q66 86 141.5 124.5t181.5 38.5q166 0 259.5 -90t93.5 -252v-782h-287v737q0 66 -42 105t-114 39q-92 0 -144 -57.5t-52 -159.5v-664h-287v737q0 66 -42 105t-114 39q-92 0 -144 -56.5t-52 -160.5 v-664h-287z" />
<glyph unicode="n" horiz-adv-x="1251" d="M129 0v1106h287v-160q61 94 140 136t192 42q180 0 275 -98t95 -285v-741h-287v682q0 199 -184 199q-106 0 -168.5 -59.5t-62.5 -157.5v-664h-287z" />
<glyph unicode="o" horiz-adv-x="1251" d="M72 537q0 281 145.5 434t409.5 153q125 0 224 -41t169 -116.5t107.5 -184t37.5 -243.5q0 -137 -37.5 -246t-108.5 -184.5t-172.5 -115.5t-228.5 -40t-228 40t-172 115.5t-108.5 184t-37.5 244.5zM358 539q0 -160 72 -257.5t188 -97.5q57 0 105.5 26t83.5 72t53.5 110.5 t18.5 144.5q0 164 -72 260t-193 96q-57 0 -104 -25.5t-81 -72.5t-52.5 -112t-18.5 -144z" />
<glyph unicode="p" horiz-adv-x="1251" d="M119 -446v1552h287v-164q102 182 307 182q100 0 194 -48t150 -126q55 -78 87 -187.5t32 -225.5q0 -127 -35 -233.5t-96.5 -185.5t-146.5 -123t-185 -44q-205 0 -307 180v-577h-287zM406 537q0 -156 65.5 -251.5t175.5 -95.5q53 0 98.5 25t77 71t49 108.5t17.5 140.5 q0 160 -66.5 255t-179.5 95q-106 0 -171.5 -96.5t-65.5 -251.5z" />
<glyph unicode="q" horiz-adv-x="1251" d="M57 537q0 127 35 234.5t96.5 186t146.5 122.5t185 44q205 0 307 -182v164h287v-1552h-287v577q-100 -180 -309 -180q-98 0 -192.5 48t-149.5 126q-55 76 -87 185.5t-32 226.5zM344 537q0 -156 66.5 -251.5t175.5 -95.5q55 0 99 25t76 71t49 108.5t17 140.5q0 160 -66 255 t-177 95q-53 0 -97.5 -25.5t-76 -72t-49 -111t-17.5 -139.5z" />
<glyph unicode="r" horiz-adv-x="796" d="M129 0v1106h287v-217q47 113 128 174t179 61h16t19 -2v-291q-29 4 -48.5 6.5t-39.5 2.5q-254 0 -254 -252v-588h-287z" />
<glyph unicode="s" d="M59 322h281q10 -47 21.5 -69t37.5 -38q55 -37 166 -37q100 0 156.5 29t56.5 80q0 35 -21.5 54t-74.5 36l-342 106q-41 12 -68.5 23.5t-47 22t-35 21.5t-29.5 25q-61 68 -62 181q0 172 122 270t333 98q223 0 350 -99t131 -275h-276q-2 149 -204 149h-3q-76 0 -121 -27.5 t-45 -74.5q0 -35 20.5 -51.5t79.5 -34.5l363 -105q217 -66 217 -278q0 -82 -35 -155t-96 -122q-123 -98 -352 -98q-254 0 -385 92t-138 277z" />
<glyph unicode="t" horiz-adv-x="681" d="M29 893v190h141v297h287v-297h159v-190h-159v-602q0 -74 18.5 -97.5t75.5 -23.5q16 0 29.5 1t35.5 5v-201q-41 -12 -78.5 -17t-88.5 -5q-279 0 -279 260v680h-141z" />
<glyph unicode="u" horiz-adv-x="1251" d="M119 336v770h287v-711q0 -198 182 -198h2q106 0 168.5 59t62.5 158v692h287v-1106h-287v131q-61 -94 -140 -136t-192 -42q-180 0 -275 98.5t-95 284.5z" />
<glyph unicode="v" d="M29 1106h303l239 -809l224 809h303l-381 -1106h-301z" />
<glyph unicode="w" horiz-adv-x="1593" d="M10 1106h297l176 -774l168 774h287l166 -774l168 774h297l-314 -1106h-297l-165 780l-177 -780h-294z" />
<glyph unicode="x" d="M33 0l368 557l-360 549h344l180 -334l178 334h344l-360 -549l369 -557h-344l-187 344l-188 -344h-344z" />
<glyph unicode="y" d="M18 1106h316l244 -805l229 805h295l-455 -1309q-18 -51 -34.5 -86t-36 -59.5t-43 -39.5t-54.5 -28q-39 -16 -93 -24.5t-107 -8.5q-27 0 -48.5 2.5t-54.5 6.5v215q27 -8 43.5 -10.5t32.5 -2.5q80 0 129 53.5t49 139.5z" />
<glyph unicode="z" horiz-adv-x="1024" d="M43 0v231l547 643h-510v232h860v-232l-543 -643h561v-231h-915z" />
<glyph unicode="{" horiz-adv-x="796" d="M76 457v188h8h25q133 2 133 129v432q0 63 18.5 115.5t52 90.5t79.5 59.5t102 21.5h155v-203h-76q-47 0 -69.5 -27.5t-22.5 -88.5v-400q0 -55 -9 -94t-32.5 -64.5t-61.5 -41t-95 -23.5q57 -10 95 -24.5t61.5 -41t32.5 -65.5t9 -94v-400q0 -76 19.5 -104.5t72.5 -28.5h76 v-203h-155q-55 0 -101.5 21.5t-80 59.5t-52 90.5t-18.5 115.5v430q0 63 -14.5 92t-51.5 45q-16 6 -33.5 8.5t-58.5 2.5z" />
<glyph unicode="|" horiz-adv-x="573" d="M205 -410v1903h164v-1903h-164z" />
<glyph unicode="}" horiz-adv-x="796" d="M147 -207h76q47 0 69.5 27.5t22.5 89.5v399q0 55 9.5 94t33 65t61.5 41t95 23q-57 8 -95 23.5t-61.5 42.5t-33 65.5t-9.5 94.5v399q0 76 -19.5 104.5t-72.5 28.5h-76v203h156q55 0 101.5 -21.5t80 -59.5t52 -90t18.5 -116v-430q0 -63 14.5 -92t51.5 -45q16 -6 33.5 -8 t58.5 -2l8 -2v-189h-8h-25q-133 -2 -133 -129v-432q0 -63 -18.5 -115.5t-52 -90.5t-80 -59.5t-101.5 -21.5h-156v203z" />
<glyph unicode="~" horiz-adv-x="1196" d="M123 346q14 297 260 297q98 0 170 -51l117 -86q41 -31 66.5 -41t58.5 -10q76 0 98 59q4 10 6 22.5t4 53.5h160q-18 -299 -260 -299q-51 0 -90 12t-80 41l-117 86q-35 27 -63.5 38t-61.5 11q-76 0 -98 -57q-4 -12 -6 -23.5t-4 -52.5h-160z" />
<glyph unicode="&#xa1;" horiz-adv-x="1269" d="M12 1493h318l317 -756l318 756h315l-582 -1303q-41 -90 -119.5 -140t-179.5 -50h-295v256h265q31 0 53 23l3 3t4 7t8 18t16 35l36 82zM297 1911h180q23 -152 160 -152q139 0 158 152h182q-4 -70 -13.5 -107t-35.5 -78q-94 -137 -291 -137q-231 0 -313 176 q-16 31 -20.5 60.5t-6.5 85.5z" />
<glyph unicode="&#xa2;" horiz-adv-x="1112" d="M23 1106h315l244 -805l229 805h295l-455 -1309q-25 -72 -54.5 -120t-72.5 -75.5t-104.5 -39t-147.5 -8.5h-92v231q70 -2 116 4t73.5 24.5t42 52.5t22.5 89zM297 1528h139q6 -61 40 -87t108 -26t107.5 25.5t39.5 87.5h139q-2 -45 -7 -73t-19 -54q-29 -61 -102.5 -100 t-157.5 -39t-158 38.5t-102 100.5q-14 27 -19.5 54.5t-7.5 72.5z" />
<glyph unicode="&#xa3;" d="M55 397v156h307v-156q0 -98 39 -140t125 -42q168 0 168 182v1096h307v-1096q0 -215 -124.5 -329.5t-356.5 -114.5q-211 0 -340 117q-66 59 -95.5 135t-29.5 192z" />
<glyph unicode="&#xa4;" d="M53 1098l142 139l157 -158q47 29 106.5 46.5t116.5 17.5q59 0 117 -16.5t103 -45.5l149 150l141 -141l-153 -154q33 -63 44 -107.5t11 -103.5q0 -117 -59 -221l157 -156l-141 -139l-153 153q-37 -18 -63 -30.5t-48.5 -19.5t-44 -9t-49.5 -2q-61 0 -124 17.5t-104 46.5 l-161 -160l-140 141l160 158q-35 61 -48 109.5t-13 107.5q0 121 59 215zM352 723q0 -47 17.5 -87t47 -69.5t69.5 -47t85 -17.5t85 17.5t70 47t47.5 69.5t17.5 85t-17.5 86t-47.5 70.5t-71 47t-86 17.5t-84 -17.5t-68.5 -47t-47 -69.5t-17.5 -85z" />
<glyph unicode="&#xa5;" horiz-adv-x="980" d="M154 0v1493h589l138 250h272l-182 -250v-256h-510v-1237h-307z" />
<glyph unicode="&#xa6;" horiz-adv-x="573" d="M205 387h164v-797h-164v797zM205 696v797h164v-797h-164z" />
<glyph unicode="&#xa7;" d="M68 575q0 45 8 83t29.5 72t58.5 69t92 78q-39 39 -49 51t-21 24q-27 35 -41 82t-14 94q0 76 32 141.5t89 111.5t136 73t171 27q123 0 218 -43t143 -121q25 -41 35 -86t14 -117h-260q-20 158 -160 158q-59 0 -95 -27.5t-36 -75.5q0 -23 8 -42t29.5 -38.5t56.5 -42 t90 -53.5l260 -143q104 -57 151.5 -133t47.5 -180t-44 -170t-149 -113q143 -100 144 -274q0 -88 -33 -160t-91.5 -123t-140 -80t-182.5 -29q-428 0 -432 412h268v-20q4 -49 11.5 -75t27.5 -44q45 -45 127 -45q70 0 113 34.5t43 90.5q0 55 -37 92q-8 8 -14 13t-16.5 11 t-28 15.5t-47.5 27.5l-351 205q-78 47 -119.5 115.5t-41.5 154.5zM309 649q0 -47 22.5 -77.5t88.5 -65.5l301 -164q53 39 73.5 68.5t20.5 66.5q0 47 -26.5 79t-98.5 71l-293 155q-47 -29 -67.5 -58.5t-20.5 -74.5z" />
<glyph unicode="&#xa8;" horiz-adv-x="1341" d="M137 0v1493h1080v-256h-773v-338h715v-256h-715v-387h809v-256h-1116zM391 1638v250h225v-250h-225zM772 1638v250h225v-250h-225z" />
<glyph unicode="&#xa9;" horiz-adv-x="1509" d="M-29 737q0 164 61.5 307.5t169 249t252 167t310.5 61.5q160 0 300 -62.5t245.5 -169t167 -249t61.5 -302.5q0 -164 -61.5 -306t-168 -248.5t-248.5 -168t-304 -61.5t-305.5 61.5t-250 168t-168 248.5t-61.5 304zM131 739q0 -131 49 -246.5t134 -202.5t198 -137.5 t242 -50.5t242.5 50.5t198.5 136.5t134 201.5t49 246.5q0 133 -49 250t-134 203t-200.5 135t-246.5 49q-127 0 -239 -50t-196 -137t-133 -203t-49 -245zM334 737q0 111 28.5 199t83 149.5t131 94t173.5 32.5q106 0 190 -39.5t135 -111.5q27 -39 39 -78t16 -100h-184 q-16 84 -62 121.5t-128 37.5q-111 0 -172.5 -80.5t-61.5 -226.5q0 -145 59.5 -224t168.5 -79q180 0 196 176h189q-8 -162 -111.5 -254t-278.5 -92q-193 0 -302 127t-109 348z" />
<glyph unicode="&#xaa;" horiz-adv-x="1488" d="M78 735q0 172 54 325.5t153 260.5q178 197 475 197q434 0 629 -388l-267 -131q-61 135 -146 195.5t-210 60.5q-92 0 -167 -39.5t-122 -111.5q-14 -23 -24.5 -43.5t-18.5 -44t-16 -52t-17 -65.5h607v-256h-619q23 -207 120 -317.5t257 -110.5q141 0 234.5 81t146.5 251 l287 -92q-78 -244 -252 -373t-424 -129q-342 0 -531 268q-72 102 -110.5 235.5t-38.5 278.5z" />
<glyph unicode="&#xab;" d="M180 446v234l342 305v-240l-207 -182l207 -182v-234zM616 446v234l342 305v-240l-206 -182l206 -182v-234z" />
<glyph unicode="&#xac;" horiz-adv-x="1196" d="M82 610v158h1032v-592h-158v434h-874z" />
<glyph unicode="&#xad;" horiz-adv-x="681" d="M53 424v276h557v-276h-557z" />
<glyph unicode="&#xae;" horiz-adv-x="1509" d="M-29 737q0 164 61.5 307.5t169 249t252 167t310.5 61.5q160 0 300 -62.5t245.5 -169t167 -249t61.5 -302.5q0 -164 -61.5 -306t-168 -248.5t-248.5 -168t-304 -61.5t-305.5 61.5t-250 168t-168 248.5t-61.5 304zM131 739q0 -131 49 -246.5t134 -202.5t198 -137.5 t242 -50.5t242.5 50.5t198.5 136.5t134 201.5t49 246.5q0 133 -49 250t-134 203t-200.5 135t-246.5 49q-127 0 -239 -50t-196 -137t-133 -203t-49 -245zM393 287v907h488q117 0 182 -65.5t65 -182.5q0 -78 -34.5 -131t-108.5 -90q39 -18 61.5 -34.5t34 -48.5t15.5 -88 t6 -155q0 -29 8 -43t31 -26v-43h-211q-10 18 -15.5 32.5t-8.5 32t-4 40t-1 54.5v28.5t2 31.5v37q0 98 -125 98h-188v-354h-197zM590 807h211q74 0 102.5 23.5t28.5 87.5q0 63 -29 86.5t-102 23.5h-211v-221z" />
<glyph unicode="&#xaf;" horiz-adv-x="579" d="M-12 1638v250h225v-250h-225zM135 0v1493h307v-1493h-307zM369 1638v250h225v-250h-225z" />
<glyph unicode="&#xb0;" horiz-adv-x="1241" d="M309 1094q0 66 24.5 122t66.5 98t99.5 66.5t123.5 24.5q63 0 118.5 -24.5t97.5 -67.5t66.5 -99.5t24.5 -119.5t-24.5 -119.5t-66.5 -98.5t-99.5 -67t-121.5 -25q-63 0 -119.5 25t-98.5 67t-66.5 98t-24.5 120zM438 1094q0 -37 14.5 -70t39 -57.5t58.5 -39t71 -14.5 t69.5 14.5t57 39t39 57.5t14.5 70q0 39 -14.5 71.5t-39 57t-58.5 39t-73 14.5q-37 0 -68.5 -14.5t-56 -39t-39 -58.5t-14.5 -70z" />
<glyph unicode="&#xb1;" horiz-adv-x="1196" d="M115 -33v244h964v-244h-964zM115 641v244h360v360h244v-360h360v-244h-360v-360h-244v360h-360z" />
<glyph unicode="&#xb2;" horiz-adv-x="579" d="M137 0v1493h307v-1493h-307z" />
<glyph unicode="&#xb3;" horiz-adv-x="569" d="M141 0v1106h287v-1106h-287zM141 1237v256h287v-256h-287z" />
<glyph unicode="&#xb4;" horiz-adv-x="819" d="M131 0v1106h494l182 324h274l-274 -324v-232h-389v-874h-287z" />
<glyph unicode="&#xb5;" horiz-adv-x="1251" d="M119 -451v1557h287v-684q0 -59 7 -93t29 -65q45 -68 136 -67q92 0 149 60t57 157v692h287v-799q0 -90 12.5 -119.5t49.5 -29.5q14 0 41 8v-178q-35 -18 -68 -26.5t-76 -8.5q-72 0 -115 24.5t-79 85.5q-61 -61 -113.5 -85.5t-124.5 -24.5q-66 0 -114 18.5t-91 59.5v-482 h-274z" />
<glyph unicode="&#xb6;" d="M41 1014q0 86 26.5 168t77.5 149q117 162 318 162h620v-147h-88v-1737h-200v1737h-129v-1737h-201v938q-94 4 -172 41t-134.5 98.5t-87 145t-30.5 182.5z" />
<glyph unicode="&#xb7;" horiz-adv-x="569" d="M131 346v252h254v-252h-254z" />
<glyph unicode="&#xb8;" horiz-adv-x="1177" d="M80 524q0 139 35 250t101.5 188.5t160.5 119.5t213 42q174 0 300 -89t179 -247q18 -51 28.5 -124.5t10.5 -145.5v-22.5t-2 -32.5h-739q4 -80 13 -122t32 -75q63 -88 184 -88q78 0 133 34t82 99h295q-25 -82 -73 -147.5t-115.5 -112.5t-150.5 -72.5t-177 -25.5 q-119 0 -213 40t-160.5 113.5t-101.5 179t-35 238.5zM293 1272v250h225v-250h-225zM371 653h440q-10 121 -67.5 183.5t-155.5 62.5q-190 0 -217 -246zM674 1272v250h225v-250h-225z" />
<glyph unicode="&#xb9;" horiz-adv-x="2748" d="M137 0v1493h316l591 -1016v1016h308v-1493h-308l-600 1032v-1032h-307zM1579 930q0 281 145.5 434.5t409.5 153.5q125 0 224.5 -41t169 -117t107.5 -184.5t38 -243.5q0 -137 -38 -245.5t-108.5 -184.5t-172 -116t-228.5 -40t-228.5 40t-172 116t-108.5 184.5t-38 243.5z M1602 0v195h1064v-195h-1064zM1866 932q0 -160 71.5 -257t188.5 -97q57 0 105 25.5t83 71.5t53.5 110.5t18.5 144.5q0 164 -71.5 260t-192.5 96q-57 0 -104.5 -25.5t-81 -72.5t-52 -111.5t-18.5 -144.5z" />
<glyph unicode="&#xba;" horiz-adv-x="1198" d="M80 539q0 137 38 245.5t108.5 184t171 115.5t227.5 40q164 0 287.5 -67.5t189.5 -194.5l-254 -123q-76 154 -221 154q-94 0 -163 -64.5t-85 -171.5h432v-194h-440q18 -135 83.5 -207t170.5 -72q184 0 243 217l279 -73q-55 -184 -187.5 -279.5t-332.5 -95.5 q-129 0 -230.5 40t-172 115.5t-107.5 184t-37 246.5z" />
<glyph unicode="&#xbb;" d="M180 147v240l207 182l-207 183v233l342 -299v-235zM604 147v240l207 182l-207 183v233l342 -299v-235z" />
<glyph unicode="&#xbc;" horiz-adv-x="577" d="M14 -215h29q66 0 86.5 16.5t20.5 69.5v1235h286v-1305q0 -152 -82 -211q-33 -23 -74.5 -29.5t-125.5 -6.5h-140v231zM150 1237v256h286v-256h-286z" />
<glyph unicode="&#xbd;" horiz-adv-x="1366" d="M66 446h299q8 -121 93 -184t242 -63q141 0 221 53t80 147q0 90 -63.5 139.5t-218.5 77.5l-207 41q-115 20 -193.5 54t-130 82.5t-74 114t-22.5 151.5q0 219 147.5 339t415.5 120q287 0 436.5 -123t151.5 -357h-287q-8 115 -86.5 174.5t-226.5 59.5q-119 0 -188.5 -49 t-69.5 -136q0 -41 13.5 -70.5t45 -51t86 -39t138.5 -33.5l233 -45q207 -41 301 -137.5t94 -272.5q0 -231 -159.5 -358t-452.5 -127q-287 0 -445.5 126t-172.5 367z" />
<glyph unicode="&#xbe;" d="M59 322h281q16 -80 64.5 -112t156.5 -32q104 0 160.5 27.5t56.5 81.5q0 35 -21.5 54t-74.5 36l-342 106q-41 12 -68.5 23.5t-47 22t-35 21.5t-29.5 25q-61 68 -62 181q0 172 121 270t332 98q225 0 352 -99t131 -275h-278q0 150 -205 149q-76 0 -121 -27.5t-45 -74.5 q0 -35 20.5 -51.5t79.5 -34.5l363 -105q217 -66 217 -276q0 -78 -30.5 -147.5t-84.5 -116.5q-127 -113 -379 -113q-248 0 -376.5 93t-135.5 276z" />
<glyph unicode="&#xbf;" horiz-adv-x="569" d="M-18 1272v250h225v-250h-225zM137 0v1106h287v-1106h-287zM362 1272v250h226v-250h-226z" />
<glyph unicode="&#xc0;" horiz-adv-x="1478" d="M47 0l531 1493h358l498 -1493h-316l-98 301h-559l-101 -301h-313zM547 557h389l-195 584z" />
<glyph unicode="&#xc1;" horiz-adv-x="1441" d="M137 0v1493h1084v-256h-777v-338h412q104 0 195.5 -35t159 -96t106.5 -143t39 -176q0 -96 -38 -178.5t-104.5 -142.5t-158.5 -94t-199 -34h-719zM444 256h441q72 0 118 52t46 138t-47.5 141.5t-116.5 55.5h-441v-387z" />
<glyph unicode="&#xc2;" horiz-adv-x="1427" d="M137 0v1493h674q119 0 200 -25.5t146 -83.5q63 -55 98 -130.5t35 -153.5q0 -96 -46 -166t-159 -141q129 -74 188.5 -163t59.5 -200q0 -92 -40 -178t-107 -143q-68 -57 -157 -83t-218 -26h-674zM444 256h367q227 0 227 193q0 195 -227 194h-367v-387zM444 899h334 q217 0 217 170q0 168 -217 168h-334v-338z" />
<glyph unicode="&#xc3;" horiz-adv-x="980" d="M154 0v1493h817v-256h-510v-1237h-307z" />
<glyph unicode="&#xc4;" horiz-adv-x="1632" d="M-12 256h51q66 0 122 24.5t98 67.5t66.5 100.5t24.5 124.5v920h1090v-1237h135v-535h-307v279h-973v-279h-307v535zM487 256h646v981h-476v-676q0 -186 -170 -305z" />
<glyph unicode="&#xc5;" horiz-adv-x="1341" d="M137 0v1493h1080v-256h-773v-338h715v-256h-715v-387h809v-256h-1116z" />
<glyph unicode="&#xc6;" horiz-adv-x="2199" d="M20 0l324 803l-235 690h311l186 -559h340v559h307v-559h340l187 559h311l-236 -690l324 -803h-324l-276 678h-326v-678h-307v678h-328l-274 -678h-324z" />
<glyph unicode="&#xc7;" horiz-adv-x="1212" d="M86 438v58h307q-2 -147 50.5 -214t168.5 -67q98 0 154.5 56.5t56.5 154.5q0 68 -19.5 110t-66.5 70q-59 37 -129 37h-114v256h92q90 0 146 51t56 133q0 78 -52 125t-138 47q-90 0 -139 -49t-49 -135v-51h-308v51q0 113 28 188.5t93 133.5q66 59 168.5 92t214.5 33 q106 0 195.5 -31t155 -84t102.5 -127t37 -162q0 -209 -197 -317q113 -39 174.5 -133.5t61.5 -227.5q0 -102 -40 -190t-111 -153.5t-167 -102.5t-207 -37q-123 0 -231.5 44t-179.5 122q-113 121 -113 319z" />
<glyph unicode="&#xc8;" horiz-adv-x="1478" d="M137 0v1493h307v-924l592 738v186h307v-1493h-307v915l-592 -733v-182h-307z" />
<glyph unicode="&#xc9;" horiz-adv-x="1478" d="M137 0v1493h307v-924l592 738v186h307v-1493h-307v915l-592 -733v-182h-307zM401 1911h181q23 -152 159 -152q139 0 158 152h182q-4 -70 -13 -107t-36 -78q-94 -137 -291 -137q-231 0 -313 176q-16 31 -20.5 60.5t-6.5 85.5z" />
<glyph unicode="&#xca;" horiz-adv-x="1388" d="M137 0v1493h307v-559h338l187 559h311l-236 -690l324 -803h-324l-274 678h-326v-678h-307z" />
<glyph unicode="&#xcb;" horiz-adv-x="1394" d="M-12 0v256h108q74 0 74 72v1165h1087v-1493h-307v1237h-473v-932q0 -63 -25.5 -118.5t-68.5 -97.5t-100.5 -65.5t-122.5 -23.5h-172z" />
<glyph unicode="&#xcc;" horiz-adv-x="1726" d="M137 0v1493h459l270 -1188l262 1188h463v-1493h-307v1163l-264 -1163h-307l-269 1163v-1163h-307z" />
<glyph unicode="&#xcd;" horiz-adv-x="1478" d="M137 0v1493h307v-559h592v559h307v-1493h-307v678h-592v-678h-307z" />
<glyph unicode="&#xce;" horiz-adv-x="1593" d="M78 733q0 170 54 319.5t155 258.5q98 106 225 156.5t295 50.5q156 0 287 -57.5t224 -161t145.5 -248t52.5 -316.5q0 -168 -55.5 -318.5t-153.5 -256.5q-193 -207 -510 -207t-510 207q-98 106 -153.5 256.5t-55.5 316.5zM385 735q0 -119 28.5 -215t83 -163.5t130 -104.5 t170.5 -37q92 0 168.5 37t130 104.5t83 163.5t29.5 213q0 119 -29.5 216.5t-84 165t-131 104t-172.5 36.5q-92 0 -167 -37.5t-128.5 -105.5t-82 -164t-28.5 -213z" />
<glyph unicode="&#xcf;" horiz-adv-x="1452" d="M137 0v1493h1180v-1493h-307v1241h-566v-1241h-307z" />
<glyph unicode="&#xd0;" horiz-adv-x="1355" d="M137 0v1493h660q236 0 358.5 -119t122.5 -344q0 -115 -32 -206t-90 -156.5t-142 -100.5t-187 -35h-383v-532h-307zM444 788h287q123 0 181.5 54.5t58.5 171.5q0 115 -58.5 169t-181.5 54h-287v-449z" />
<glyph unicode="&#xd1;" horiz-adv-x="1464" d="M78 733q0 182 47 327.5t136 247t216 156t285 54.5q174 0 311 -64.5t221 -183.5q43 -61 63.5 -126t28.5 -157h-294q-31 137 -108 202.5t-212 65.5q-182 0 -284.5 -139t-102.5 -387t98.5 -383t278.5 -135q143 0 228 78t102 221h294q-6 -129 -54 -231.5t-131 -175 t-196.5 -111.5t-252.5 -39q-156 0 -281 54t-212 155.5t-134 246t-47 324.5z" />
<glyph unicode="&#xd2;" horiz-adv-x="1251" d="M27 1237v256h1196v-256h-437v-1237h-307v1237h-452z" />
<glyph unicode="&#xd3;" horiz-adv-x="1269" d="M12 1493h318l317 -756l318 756h315l-582 -1303q-41 -90 -119.5 -140t-179.5 -50h-295v256h265q31 0 53 23l3 3t4 7t8 18t16 35l36 82z" />
<glyph unicode="&#xd4;" horiz-adv-x="1902" d="M78 750q0 115 41 213t112.5 169.5t170 112.5t212.5 41h185v207h307v-207h182q115 0 213 -41t170 -112.5t113 -170t41 -212.5q0 -117 -41 -216.5t-113 -172t-170 -113.5t-213 -41h-182v-207h-307v207h-185q-115 0 -213 41t-169.5 113.5t-112.5 172t-41 216.5zM385 750 q0 -63 20.5 -115.5t58.5 -90.5t90 -59.5t114 -21.5h125v567h-125q-127 0 -205 -78t-78 -202zM1110 463h125q61 0 113.5 21.5t90.5 59.5t58.5 90t20.5 116q0 125 -78 202.5t-205 77.5h-125v-567z" />
<glyph unicode="&#xd5;" horiz-adv-x="1366" d="M45 0l463 758l-463 735h373l260 -492l283 492h358l-469 -735l469 -758h-358l-283 518l-285 -518h-348z" />
<glyph unicode="&#xd6;" horiz-adv-x="1488" d="M137 0v1493h307v-1237h545v1237h307v-1237h136v-535h-308v279h-987z" />
<glyph unicode="&#xd7;" horiz-adv-x="1468" d="M82 901v592h307v-592q0 -90 69.5 -139t192.5 -49q154 0 373 59v721h307v-1493h-307v510l-122 -30.5t-90 -18.5t-78 -8t-83 -2q-270 0 -419.5 117.5t-149.5 332.5z" />
<glyph unicode="&#xd8;" horiz-adv-x="2283" d="M137 0v1493h307v-1237h545v1237h307v-1237h543v1237h307v-1493h-2009z" />
<glyph unicode="&#xd9;" horiz-adv-x="2338" d="M137 0v1493h307v-1237h545v1237h307v-1237h543v1237h307v-1237h138v-535h-308v279h-1839z" />
<glyph unicode="&#xda;" horiz-adv-x="1693" d="M-12 1237v256h811v-567h327q106 0 196.5 -35t155 -96.5t101.5 -146.5t37 -185t-37 -185t-102.5 -146.5t-154.5 -96.5t-196 -35h-634v1237h-504zM799 256h327q84 0 133.5 56.5t49.5 152.5t-48.5 150.5t-134.5 54.5h-327v-414z" />
<glyph unicode="&#xdb;" horiz-adv-x="1839" d="M137 0v1493h307v-567h328q106 0 196.5 -35t155 -96.5t101.5 -146.5t37 -185t-37 -185t-102.5 -146.5t-154.5 -96.5t-196 -35h-635zM444 256h328q84 0 133 56.5t49 152.5t-48 150.5t-134 54.5h-328v-414zM1397 0v1493h307v-1493h-307z" />
<glyph unicode="&#xdc;" horiz-adv-x="1337" d="M137 0v1493h307v-567h328q106 0 196.5 -35t155 -96.5t101.5 -146.5t37 -185t-37 -185t-102.5 -146.5t-154.5 -96.5t-196 -35h-635zM444 256h328q84 0 133 56.5t49 152.5t-48 150.5t-134 54.5h-328v-414z" />
<glyph unicode="&#xdd;" horiz-adv-x="1488" d="M55 455l287 92q53 -170 146.5 -251t234.5 -81q160 0 257 110.5t120 317.5h-619v256h606q-16 76 -32.5 118t-42.5 87q-47 72 -122 111.5t-167 39.5q-125 0 -210 -60t-146 -196l-267 131q195 387 629 388q346 0 528 -263q74 -104 114 -239t40 -281q0 -170 -52 -321.5 t-149 -257.5q-182 -203 -479 -203q-250 0 -427 131t-249 371z" />
<glyph unicode="&#xde;" horiz-adv-x="2267" d="M137 0v1493h307v-559h371q59 281 235.5 432.5t442.5 151.5q309 0 494 -207q98 -109 150 -258.5t52 -317.5t-52 -317.5t-150 -257.5q-184 -207 -494 -207q-422 0 -604 371q-80 160 -92 354h-353v-678h-307zM1102 735q0 -119 27.5 -215t79 -163.5t123 -104.5t161.5 -37 q88 0 159.5 37t123 104.5t79 163.5t27.5 213q0 119 -27.5 216.5t-79 165t-125 104t-163.5 36.5q-86 0 -158 -37.5t-122 -105.5t-77.5 -164t-27.5 -213z" />
<glyph unicode="&#xdf;" horiz-adv-x="1437" d="M86 0q45 16 59 43t23.5 71t9.5 81v247q0 215 180 230q-49 23 -77.5 42t-55.5 52q-43 57 -67.5 130t-24.5 148q0 96 36 178.5t99.5 142.5t149.5 94t186 34h696v-1493h-307v563h-399q-109 0 -109 -106v-285q0 -80 -30.5 -126t-83.5 -46h-285zM440 1026q0 -94 54.5 -150.5 t142.5 -56.5h356v418h-356q-86 0 -141.5 -59.5t-55.5 -151.5z" />
<glyph unicode="&#xe0;" d="M55 285q0 293 326 348l115 20q53 8 81.5 13.5t46 9.5t28 8t24.5 12q49 27 49 86q0 111 -166 111q-106 0 -149 -33t-54 -119h-276q27 383 473 383q459 0 459 -340v-614q0 -43 13 -71.5t48 -63.5v-35h-313q-20 25 -26.5 46.5t-6.5 64.5q-152 -158 -336 -158 q-76 0 -138.5 23.5t-106.5 67.5t-67.5 105.5t-23.5 135.5zM342 317q0 -61 42 -97t114 -36q111 0 169 67.5t58 192.5v78q-12 -6 -22.5 -10t-22.5 -8t-29.5 -7t-46.5 -10l-98 -18q-90 -18 -127 -52t-37 -100z" />
<glyph unicode="&#xe1;" horiz-adv-x="1251" d="M80 643q0 201 39 350.5t121 259.5q33 45 67.5 79t78.5 62.5t99.5 52t128.5 46.5q82 23 114 75t36 167h299q-4 -121 -22.5 -204t-59.5 -137.5t-108.5 -87t-170.5 -53.5q-92 -18 -156.5 -40.5t-106.5 -51t-63.5 -65.5t-27.5 -86q84 55 160 80.5t162 25.5q111 0 210 -46 t169 -130q125 -152 125 -401q0 -137 -38 -246t-109 -184.5t-172 -115.5t-228 -40q-176 0 -306.5 81t-189.5 224q-51 121 -51 385zM367 539q0 -160 71.5 -257.5t188.5 -97.5q57 0 105 26t83 72t53.5 110.5t18.5 144.5q0 164 -71.5 260t-192.5 96q-57 0 -104.5 -25.5 t-81.5 -72.5t-52 -112t-18 -144z" />
<glyph unicode="&#xe2;" horiz-adv-x="1165" d="M131 0v1106h637q63 0 118.5 -21.5t95.5 -59.5t63.5 -90t23.5 -112q0 -172 -180 -248q203 -68 203 -266q0 -68 -25 -124t-68 -98t-102 -64.5t-129 -22.5h-637zM418 231h270q49 0 83 35t34 88q0 51 -34 87t-83 36h-270v-246zM418 672h270q43 0 68.5 27.5t25.5 74.5 q0 45 -26.5 72.5t-67.5 27.5h-270v-202z" />
<glyph unicode="&#xe3;" horiz-adv-x="819" d="M131 0v1106h676v-232h-389v-874h-287z" />
<glyph unicode="&#xe4;" horiz-adv-x="1339" d="M35 -229v460h115q74 0 116.5 72t42.5 195v608h871v-875h102v-460h-287v229h-673v-229h-287zM469 231h424v643h-297v-337q0 -102 -30.5 -175t-96.5 -131z" />
<glyph unicode="&#xe5;" horiz-adv-x="1177" d="M80 524q0 139 35 250t101.5 188.5t160.5 119.5t213 42q174 0 300 -89t179 -247q18 -51 28.5 -124.5t10.5 -145.5v-22.5t-2 -32.5h-739q4 -80 13 -122t32 -75q63 -88 184 -88q78 0 133 34t82 99h295q-25 -82 -73 -147.5t-115.5 -112.5t-150.5 -72.5t-177 -25.5 q-119 0 -213 40t-160.5 113.5t-101.5 179t-35 238.5zM371 653h440q-10 121 -67.5 183.5t-155.5 62.5q-190 0 -217 -246z" />
<glyph unicode="&#xe6;" horiz-adv-x="1738" d="M33 0l227 616l-182 490h291l141 -385h215v385h287v-385h215l143 385h291l-184 -490l227 -616h-293l-184 489h-215v-489h-287v489h-215l-182 -489h-295z" />
<glyph unicode="&#xe7;" horiz-adv-x="993" d="M57 367h287q6 -182 154 -183q66 0 104.5 38t38.5 100q0 70 -49 108q-23 16 -47.5 21.5t-87.5 5.5h-56v194h56q162 0 161 123q0 55 -34.5 87t-96.5 32q-59 0 -96 -31t-37 -82v-24h-274v80q0 63 30.5 115.5t86 91t131 60t166.5 21.5q92 0 168.5 -21.5t130 -61.5t83 -95 t29.5 -123q0 -172 -157 -254q92 -53 133 -115.5t41 -148.5q0 -76 -32 -140.5t-89.5 -111.5t-135 -73.5t-169.5 -26.5q-223 0 -346 141q-47 51 -67 110.5t-26 162.5z" />
<glyph unicode="&#xe8;" horiz-adv-x="1234" d="M131 0v1106h287v-666l399 521v145h287v-1106h-287v666l-399 -521v-145h-287z" />
<glyph unicode="&#xe9;" horiz-adv-x="1234" d="M131 0v1106h287v-666l399 521v145h287v-1106h-287v666l-399 -521v-145h-287zM332 1528h137q6 -61 40 -87t109 -26q74 0 108 25.5t40 87.5h139q-2 -45 -8 -73t-18 -54q-31 -61 -102.5 -100t-158.5 -39q-86 0 -158.5 38.5t-103.5 100.5q-12 27 -18 54.5t-6 72.5z" />
<glyph unicode="&#xea;" horiz-adv-x="1144" d="M131 0v1106h287v-385h215l143 385h291l-184 -490l227 -616h-293l-184 489h-215v-489h-287z" />
<glyph unicode="&#xeb;" horiz-adv-x="1218" d="M35 0v231h100q33 0 57.5 29t24.5 70v776h870v-1106h-286v874h-297v-602q0 -55 -21.5 -104t-59.5 -87t-87 -59.5t-105 -21.5h-196z" />
<glyph unicode="&#xec;" horiz-adv-x="1445" d="M131 0v1106h385l201 -830l211 830h387v-1106h-275v844l-209 -844h-227l-205 844v-844h-268z" />
<glyph unicode="&#xed;" horiz-adv-x="1234" d="M131 0v1106h287v-410h399v410h287v-1106h-287v465h-399v-465h-287z" />
<glyph unicode="&#xee;" horiz-adv-x="1251" d="M80 537q0 281 145.5 434t409.5 153q125 0 224 -41t169 -116.5t108 -184t38 -243.5q0 -137 -38 -246t-109 -184.5t-172 -115.5t-228 -40t-228.5 40t-172 115.5t-108.5 184t-38 244.5zM367 539q0 -160 71.5 -257.5t188.5 -97.5q57 0 105 26t83 72t53.5 110.5t18.5 144.5 q0 164 -71.5 260t-192.5 96q-57 0 -104.5 -25.5t-81.5 -72.5t-52 -112t-18 -144z" />
<glyph unicode="&#xef;" horiz-adv-x="1200" d="M131 0v1106h938v-1106h-287v874h-364v-874h-287z" />
<glyph unicode="&#xf0;" horiz-adv-x="1267" d="M131 -446v1552h287v-164q102 182 315 182q100 0 183 -43t143.5 -120.5t94.5 -185t34 -236.5q0 -127 -35 -234.5t-97.5 -185.5t-147.5 -122t-185 -44q-205 0 -305 178v-577h-287zM418 537q0 -78 17.5 -140.5t49 -108.5t75.5 -70.5t99 -24.5q53 0 98.5 24.5t77 70.5 t49 108.5t17.5 140.5q0 160 -66.5 254t-179.5 94q-106 0 -171.5 -96.5t-65.5 -251.5z" />
<glyph unicode="&#xf1;" horiz-adv-x="1150" d="M80 530q0 285 136 439.5t386 154.5q211 0 336 -113.5t141 -318.5h-274q-25 111 -71 156t-134 45q-127 0 -178 -94q-27 -49 -41 -119t-14 -150q0 -164 60 -255t171 -91q86 0 133 45t74 154h274q-10 -98 -49 -178t-101.5 -136.5t-146.5 -86t-184 -29.5q-248 0 -383 150.5 t-135 426.5z" />
<glyph unicode="&#xf2;" horiz-adv-x="1007" d="M35 874v232h938v-232h-326v-874h-287v874h-325z" />
<glyph unicode="&#xf3;" horiz-adv-x="1112" d="M23 1106h315l244 -805l229 805h295l-455 -1309q-25 -72 -54.5 -120t-72.5 -75.5t-104.5 -39t-147.5 -8.5h-92v231q70 -2 116 4t73.5 24.5t42 52.5t22.5 89z" />
<glyph unicode="&#xf4;" horiz-adv-x="1605" d="M80 563q0 117 41 216.5t112.5 172t170 113.5t212.5 41h43v401h287v-401h43q113 0 211 -41t172 -119q70 -74 112 -181.5t42 -213.5q0 -121 -51.5 -234.5t-139.5 -187.5q-70 -59 -164 -94t-182 -35h-43v-446h-287v446h-43q-113 0 -210 44t-169.5 120t-114.5 179t-42 220z M367 557q0 -68 24.5 -131.5t67.5 -110.5q39 -41 81 -59t119 -25v643q-78 -8 -121.5 -26.5t-82.5 -61.5q-43 -45 -65.5 -104t-22.5 -125zM946 231q76 6 117 21.5t80 52.5q47 45 71.5 108.5t24.5 135.5q0 70 -23.5 132t-64.5 110q-41 41 -84 59t-121 24v-643z" />
<glyph unicode="&#xf5;" horiz-adv-x="1112" d="M25 0l368 557l-360 549h344l180 -334l178 334h344l-360 -549l368 -557h-344l-186 344l-188 -344h-344z" />
<glyph unicode="&#xf6;" horiz-adv-x="1230" d="M131 0v1106h287v-875h354v875h287v-875h115v-460h-287v229h-756z" />
<glyph unicode="&#xf7;" horiz-adv-x="1230" d="M102 653v453h287v-453q0 -49 45 -77.5t123 -28.5q61 0 122.5 11t131.5 38v510h287v-1106h-293v369q-182 -53 -344 -54q-92 0 -170 28t-121 75q-68 80 -68 235z" />
<glyph unicode="&#xf8;" horiz-adv-x="1830" d="M131 0v1106h287v-875h354v875h287v-875h354v875h287v-1106h-1569z" />
<glyph unicode="&#xf9;" horiz-adv-x="1871" d="M131 0v1106h287v-875h354v875h287v-875h354v875h287v-875h115v-460h-287v229h-1397z" />
<glyph unicode="&#xfa;" horiz-adv-x="1368" d="M-12 874v232h653v-410h293q84 0 153.5 -24.5t118.5 -69.5t77 -108.5t28 -139.5q0 -78 -29 -142.5t-79 -111.5t-118.5 -73.5t-150.5 -26.5h-580v874h-366zM641 231h279q47 0 75.5 33t28.5 84t-28.5 84t-75.5 33h-279v-234z" />
<glyph unicode="&#xfb;" horiz-adv-x="1595" d="M131 0v1106h287v-410h293q84 0 153.5 -24.5t118.5 -69.5t76.5 -108.5t27.5 -139.5q0 -78 -28.5 -142.5t-78.5 -111.5t-118.5 -73.5t-150.5 -26.5h-580zM418 231h278q47 0 76 33t29 84t-29 84t-76 33h-278v-234zM1178 0v1106h286v-1106h-286z" />
<glyph unicode="&#xfc;" horiz-adv-x="1144" d="M131 0v1106h287v-410h293q84 0 153.5 -24.5t118.5 -69.5t76.5 -108.5t27.5 -139.5q0 -78 -28.5 -142.5t-78.5 -111.5t-118.5 -73.5t-150.5 -26.5h-580zM418 231h278q47 0 76 33t29 84t-29 84t-76 33h-278v-234z" />
<glyph unicode="&#xfd;" horiz-adv-x="1198" d="M51 328l279 73q59 -217 243 -217q104 0 170 72t84 207h-440v194h432q-16 106 -84.5 171t-163.5 65q-145 0 -221 -154l-254 123q66 127 190 194.5t287 67.5q127 0 227.5 -40t171 -115.5t108.5 -184t38 -245.5t-37 -246t-107.5 -184.5t-172 -115.5t-230.5 -40 q-201 0 -333 95t-187 280z" />
<glyph unicode="&#xfe;" horiz-adv-x="1867" d="M131 0v1106h287v-410h293q18 86 42.5 141.5t67.5 108.5q74 88 181.5 133t240.5 45q127 0 228.5 -40t172 -115.5t108.5 -185t38 -246.5q0 -135 -38 -244t-108.5 -184.5t-172 -115.5t-228.5 -40q-240 0 -380 132t-165 380h-280v-465h-287zM983 539q0 -160 71.5 -257.5 t188.5 -97.5q57 0 105.5 26t83 72t53 110.5t18.5 144.5q0 162 -71.5 259t-192.5 97q-57 0 -104.5 -25.5t-81 -72.5t-52 -113t-18.5 -143z" />
<glyph unicode="&#xff;" horiz-adv-x="1171" d="M90 0q18 27 29.5 51.5t18.5 55t11.5 70.5t6.5 95q2 51 7 85t16 58.5t31.5 43t51.5 39.5q-84 35 -128 107.5t-44 174.5q0 74 24.5 133.5t68.5 102.5t106.5 66.5t138.5 23.5h612v-1106h-286v412h-189q-78 0 -107.5 -30t-29.5 -106v-69q0 -115 -41 -207h-297zM365 756 q0 -49 28.5 -81t71.5 -32h289v231h-289q-47 0 -73.5 -32.5t-26.5 -85.5z" />
<glyph unicode="&#x152;" horiz-adv-x="2236" d="M137 0v1493h307v-559h592v559h307v-567h328q106 0 196.5 -35t155 -96.5t101.5 -146.5t37 -185t-37 -185t-102.5 -146.5t-154.5 -96.5t-196 -35h-635v678h-592v-678h-307zM1343 256h328q84 0 133 56.5t49 152.5t-48 150.5t-134 54.5h-328v-414z" />
<glyph unicode="&#x153;" horiz-adv-x="1830" d="M131 0v1106h287v-410h399v410h287v-410h293q84 0 153.5 -24.5t118.5 -69.5t77 -108.5t28 -139.5q0 -78 -29 -142.5t-79 -111.5t-118.5 -73.5t-150.5 -26.5h-580v465h-399v-465h-287zM1104 231h278q47 0 76 33t29 84t-28.5 84t-76.5 33h-278v-234z" />
<glyph unicode="&#x178;" horiz-adv-x="1189" d="M131 0v1106h287v-875h354v875h287v-1106h-322v-229h-286v229h-320z" />
<glyph unicode="&#x2000;" horiz-adv-x="955" />
<glyph unicode="&#x2001;" horiz-adv-x="1911" />
<glyph unicode="&#x2002;" horiz-adv-x="955" />
<glyph unicode="&#x2003;" horiz-adv-x="1911" />
<glyph unicode="&#x2004;" horiz-adv-x="637" />
<glyph unicode="&#x2005;" horiz-adv-x="477" />
<glyph unicode="&#x2006;" horiz-adv-x="318" />
<glyph unicode="&#x2007;" horiz-adv-x="318" />
<glyph unicode="&#x2008;" horiz-adv-x="238" />
<glyph unicode="&#x2009;" horiz-adv-x="382" />
<glyph unicode="&#x200a;" horiz-adv-x="106" />
<glyph unicode="&#x2010;" horiz-adv-x="681" d="M53 424v276h557v-276h-557z" />
<glyph unicode="&#x2011;" horiz-adv-x="681" d="M53 424v276h557v-276h-557z" />
<glyph unicode="&#x2012;" horiz-adv-x="681" d="M53 424v276h557v-276h-557z" />
<glyph unicode="&#x2013;" d="M-18 424v213h1159v-213h-1159z" />
<glyph unicode="&#x2014;" horiz-adv-x="2048" d="M-14 424v213h2068v-213h-2068z" />
<glyph unicode="&#x2018;" horiz-adv-x="569" d="M137 961v223q0 88 21.5 143t70.5 96q76 63 185 70v-94q-170 -31 -164 -182h164v-256h-277z" />
<glyph unicode="&#x2019;" horiz-adv-x="569" d="M135 961v94q170 31 164 182h-164v256h277v-223q0 -88 -21.5 -143.5t-71.5 -96.5q-76 -63 -184 -69z" />
<glyph unicode="&#x201a;" horiz-adv-x="569" d="M135 0v256h277v-223q0 -88 -21.5 -143.5t-71.5 -96.5q-76 -63 -184 -69v94q170 31 164 182h-164z" />
<glyph unicode="&#x201c;" horiz-adv-x="1024" d="M145 961v223q0 88 21.5 143t71.5 96q76 63 184 70v-94q-170 -31 -164 -182h164v-256h-277zM610 961v223q0 88 21.5 143t70.5 96q76 63 185 70v-94q-170 -31 -164 -182h164v-256h-277z" />
<glyph unicode="&#x201d;" horiz-adv-x="1024" d="M150 961v94q170 31 163 182h-163v256h276v-223q0 -88 -21.5 -143.5t-70.5 -96.5q-76 -63 -184 -69zM625 961v94q170 31 163 182h-163v256h276v-223q0 -88 -21.5 -143.5t-70.5 -96.5q-76 -63 -184 -69z" />
<glyph unicode="&#x201e;" horiz-adv-x="1024" d="M147 0v256h277v-223q0 -88 -21.5 -143.5t-70.5 -96.5q-76 -63 -185 -69v94q170 31 164 182h-164zM608 0v256h277v-223q0 -88 -21.5 -143.5t-70.5 -96.5q-76 -63 -185 -69v94q170 31 164 182h-164z" />
<glyph unicode="&#x2022;" horiz-adv-x="716" d="M102 614q0 53 20.5 100.5t55.5 82t82 54t102 19.5q51 0 97.5 -20.5t80 -55t54 -81.5t20.5 -99q0 -53 -20.5 -99t-55 -81t-80.5 -55.5t-100 -20.5q-53 0 -99 20.5t-81 55.5t-55.5 81t-20.5 99z" />
<glyph unicode="&#x2026;" horiz-adv-x="2048" d="M188 0v299h308v-299h-308zM870 0v299h308v-299h-308zM1552 0v299h308v-299h-308z" />
<glyph unicode="&#x202f;" horiz-adv-x="382" />
<glyph unicode="&#x2039;" horiz-adv-x="681" d="M170 446v234l342 305v-240l-207 -182l207 -182v-234z" />
<glyph unicode="&#x203a;" horiz-adv-x="681" d="M164 147v240l207 182l-207 183v233l342 -299v-235z" />
<glyph unicode="&#x205f;" horiz-adv-x="477" />
<glyph unicode="&#x20ac;" horiz-adv-x="1374" d="M8 1237v256h996v-256h-398v-371q51 39 92 65.5t80 42t77 21.5t81 6q76 0 141.5 -24.5t111.5 -69.5t72.5 -106.5t26.5 -134.5v-359q0 -53 -23.5 -109.5t-64.5 -99.5q-90 -98 -229 -98h-262v256h147q55 0 90 30.5t35 80.5v231q0 61 -45 101t-113 40t-119 -32.5t-98 -108.5 v-598h-307v1237h-291z" />
<glyph unicode="&#x2122;" horiz-adv-x="2048" d="M145 1333v160h748v-160h-272v-774h-195v774h-281zM993 559v934h281l176 -717l172 717h281v-934h-187v715l-170 -715h-192l-174 715v-715h-187z" />
<glyph unicode="&#x25fc;" horiz-adv-x="1105" d="M0 0v1106h1106v-1106h-1106z" />
</font>
</defs>
</svg>
